<!DOCTYPE svg PUBLIC "-//W3C//DTD SVG 1.1//EN" "http://www.w3.org/Graphics/SVG/1.1/DTD/svg11.dtd">

<!-- Uploaded to: SVG Repo, www.svgrepo.com, Transformed by: SVG Repo Mixer Tools -->
<svg width="200px" height="200px" viewBox="0 0 512 512" xmlns="http://www.w3.org/2000/svg" fill="#000000">

<g id="SVGRepo_bgCarrier" stroke-width="0"/>

<g id="SVGRepo_tracerCarrier" stroke-linecap="round" stroke-linejoin="round"/>

<g id="SVGRepo_iconCarrier">

<path fill="#ffffff" d="M120.16 45A20.162 20.162 0 0 0 100 65.16v381.68A20.162 20.162 0 0 0 120.16 467h65.68A20.162 20.162 0 0 0 206 446.84V65.16A20.162 20.162 0 0 0 185.84 45h-65.68zm206 0A20.162 20.162 0 0 0 306 65.16v381.68A20.162 20.162 0 0 0 326.16 467h65.68A20.162 20.162 0 0 0 412 446.84V65.16A20.162 20.162 0 0 0 391.84 45h-65.68z"/>

</g>

</svg>